<?xml version="1.0" encoding="utf-8"?>
<!-- Generator: Adobe Illustrator 25.2.1, SVG Export Plug-In . SVG Version: 6.00 Build 0)  -->
<svg version="1.1" id="Calque_1" xmlns="http://www.w3.org/2000/svg" xmlns:xlink="http://www.w3.org/1999/xlink" x="0px" y="0px"
	 viewBox="0 0 50.5 18.1" style="enable-background:new 0 0 50.5 18.1;" xml:space="preserve">
<style type="text/css">
	.st0{fill:#06A3DA;}
</style>
<g>
	<g>
		<path class="st0" d="M10.2,3.7c-0.2,0-0.3,0.1-0.5,0.1C8.2,4.2,6.9,5.4,6.4,6.9C6.1,7.5,6,8.1,6.1,8.8C6.2,10,6.7,11.1,7.6,12
			c0.5,0.5,1.1,0.8,1.7,1.1c0.5,0.2,1,0.3,1.6,0.3c0.8,0,1.5-0.1,2.2-0.4c0.9-0.4,1.7-1,2.3-1.7c0.5-0.6,0.8-1.3,0.9-2.1
			c0.1-0.8,0-1.5-0.2-2.2c-0.5-1.4-1.4-2.4-2.8-3c-0.3-0.1-0.6-0.2-0.9-0.3c0,0-0.1,0-0.1,0c0-0.1,0.1-0.1,0.1-0.1
			c0.4-0.4,0.9-0.6,1.5-0.7c0.9-0.2,1.7-0.1,2.5,0.3c0.7,0.4,1.2,1,1.5,1.7C17.9,5.2,18,5.5,18,5.9c0.1,0.7,0,1.4-0.2,2.1
			c-0.2,0.7-0.4,1.3-0.8,2c-0.4,0.8-1,1.6-1.6,2.2c-0.6,0.6-1.1,1.1-1.8,1.6c-0.7,0.6-1.5,1.1-2.3,1.6c0,0-0.1,0-0.1,0.1
			c-0.1,0-0.1,0-0.1-0.1c-0.8-0.5-1.6-1-2.3-1.6C8,13.2,7.4,12.7,6.8,12c-0.4-0.4-0.8-0.9-1.1-1.5C5.1,9.7,4.7,8.8,4.5,7.8
			C4.4,7.4,4.4,7.1,4.3,6.7c0-0.4,0-0.9,0.1-1.3C4.5,4.9,4.7,4.4,5,4c0.3-0.4,0.7-0.7,1.2-1c0.4-0.2,0.9-0.3,1.3-0.3
			c0.9,0,1.7,0.3,2.4,0.8C10.1,3.6,10.1,3.6,10.2,3.7z"/>
		<path class="st0" d="M15,8c-0.1-0.9-0.5-1.6-1.1-2.2c-0.9-0.8-2-1.2-3.3-1C9.6,5,8.9,5.4,8.3,6.1C7.7,6.8,7.4,7.6,7.4,8.4
			c0,0.3,0,0.6,0.1,0.8c0.2,1.1,0.9,1.9,1.8,2.4c0.8,0.5,1.7,0.6,2.6,0.5c0.9-0.1,1.7-0.6,2.3-1.2C14.8,10,15.1,9.1,15,8z M9.6,10.8
			c-0.7,0-1.2-0.5-1.2-1.1c0-0.2,0.1-0.4,0.2-0.6l0,0l0,0l0.5-0.7l0.5-0.7l0.5,0.7l0.5,0.7l0,0c0.1,0.2,0.2,0.4,0.2,0.6
			C10.9,10.3,10.3,10.8,9.6,10.8z M10.6,7.8l-0.5-0.7l0,0C10,6.9,9.9,6.7,9.9,6.5c0-0.6,0.6-1.1,1.2-1.1c0.7,0,1.2,0.5,1.2,1.1
			c0,0.2-0.1,0.4-0.2,0.6l0,0l0,0l-0.5,0.7l-0.5,0.7L10.6,7.8z M12.7,10.8c-0.7,0-1.2-0.5-1.2-1.1c0-0.2,0.1-0.4,0.2-0.6l0,0l0,0
			l0.5-0.7l0.5-0.7l0.5,0.7l0.5,0.7l0,0c0.1,0.2,0.2,0.4,0.2,0.6C13.9,10.3,13.4,10.8,12.7,10.8z"/>
	</g>
	<g>
		<g>
			<path class="st0" d="M23.7,5.4l1.4,4.5H24L23.7,9h-1.5L22,9.9h-0.9l1.4-4.5H23.7z M22.5,8.1h1L23,6.6L22.5,8.1z"/>
			<path class="st0" d="M26.7,5.4v2.1l1.4-2.1h1L28,7l1.4,2.9h-1.2l-0.9-2l-0.6,0.9v1h-1V5.4H26.7z"/>
			<path class="st0" d="M29.9,5.4h1.4c0.6,0,1,0.1,1.3,0.2C32.8,5.8,33,6,33.2,6.4c0.2,0.3,0.3,0.8,0.3,1.3c0,0.6-0.2,1.2-0.6,1.6
				c-0.4,0.4-0.9,0.6-1.6,0.6h-1.5V5.4z M30.9,6.2v2.8h0.4c0.4,0,0.7-0.1,0.9-0.4c0.2-0.3,0.3-0.6,0.3-1c0-0.3-0.1-0.5-0.2-0.8
				c-0.1-0.2-0.2-0.4-0.4-0.5c-0.2-0.1-0.3-0.1-0.6-0.1H30.9z"/>
			<path class="st0" d="M35.3,5.4v4.5h-1.1V5.4H35.3z"/>
			<path class="st0" d="M39.1,5.4v0.9h-1.1v3.6h-1.1V6.3h-1.1V5.4H39.1z"/>
			<path class="st0" d="M41.4,5.4l1.4,4.5h-1.1L41.4,9h-1.5l-0.3,0.9h-0.9l1.4-4.5H41.4z M40.2,8.1h1l-0.5-1.6L40.2,8.1z"/>
			<path class="st0" d="M44.4,9h1.8v0.9h-2.9V5.4h1.1V9z"/>
		</g>
		<g>
			<path class="st0" d="M21,10.9c0.1,0,0.3,0,0.5,0c0.3,0,0.6,0.1,0.8,0.2c0.2,0.2,0.3,0.4,0.3,0.7c0,0.3-0.1,0.6-0.3,0.7
				c-0.2,0.2-0.5,0.3-0.8,0.3c-0.2,0-0.3,0-0.4,0V10.9z M21.2,12.5c0.1,0,0.1,0,0.2,0c0.5,0,0.8-0.3,0.8-0.8c0-0.4-0.2-0.7-0.8-0.7
				c-0.1,0-0.2,0-0.3,0V12.5z"/>
			<path class="st0" d="M23,12.1c0,0.3,0.2,0.5,0.5,0.5c0.2,0,0.3,0,0.4-0.1l0,0.2c-0.1,0-0.2,0.1-0.4,0.1c-0.4,0-0.7-0.3-0.7-0.7
				c0-0.4,0.2-0.7,0.6-0.7c0.4,0,0.6,0.4,0.6,0.6c0,0,0,0.1,0,0.1H23z M23.7,11.9c0-0.2-0.1-0.4-0.3-0.4c-0.2,0-0.4,0.2-0.4,0.4
				H23.7z"/>
			<path class="st0" d="M24.3,12.5c0.1,0,0.2,0.1,0.3,0.1c0.2,0,0.3-0.1,0.3-0.2c0-0.1-0.1-0.2-0.2-0.2c-0.2-0.1-0.4-0.2-0.4-0.4
				c0-0.2,0.2-0.4,0.5-0.4c0.1,0,0.3,0,0.3,0.1L25,11.6c-0.1,0-0.1-0.1-0.3-0.1c-0.1,0-0.2,0.1-0.2,0.2c0,0.1,0.1,0.2,0.3,0.2
				c0.2,0.1,0.4,0.2,0.4,0.4c0,0.2-0.2,0.4-0.5,0.4c-0.1,0-0.3,0-0.4-0.1L24.3,12.5z"/>
			<path class="st0" d="M26.1,12.5c0.1,0,0.2,0.1,0.3,0.1c0.2,0,0.3-0.1,0.3-0.2c0-0.1-0.1-0.2-0.2-0.2c-0.2-0.1-0.4-0.2-0.4-0.4
				c0-0.2,0.2-0.4,0.5-0.4c0.1,0,0.3,0,0.3,0.1l-0.1,0.2c-0.1,0-0.1-0.1-0.3-0.1c-0.1,0-0.2,0.1-0.2,0.2c0,0.1,0.1,0.2,0.3,0.2
				c0.2,0.1,0.4,0.2,0.4,0.4c0,0.2-0.2,0.4-0.5,0.4c-0.1,0-0.3,0-0.4-0.1L26.1,12.5z"/>
			<path class="st0" d="M28.5,12c0,0.5-0.3,0.7-0.7,0.7c-0.4,0-0.6-0.3-0.6-0.7c0-0.4,0.3-0.7,0.7-0.7C28.2,11.3,28.5,11.6,28.5,12z
				 M27.4,12c0,0.3,0.2,0.5,0.4,0.5c0.2,0,0.4-0.2,0.4-0.5c0-0.2-0.1-0.5-0.4-0.5C27.5,11.5,27.4,11.8,27.4,12z"/>
			<path class="st0" d="M29.1,11c0,0.1-0.1,0.1-0.2,0.1c-0.1,0-0.1-0.1-0.1-0.1c0-0.1,0.1-0.2,0.2-0.2C29,10.8,29.1,10.9,29.1,11z
				 M28.8,12.7v-1.3h0.2v1.3H28.8z"/>
			<path class="st0" d="M29.5,11.7c0-0.1,0-0.3,0-0.4h0.2l0,0.2h0c0.1-0.1,0.2-0.3,0.4-0.3c0.2,0,0.5,0.1,0.5,0.6v0.8h-0.2v-0.8
				c0-0.2-0.1-0.4-0.3-0.4c-0.2,0-0.3,0.1-0.3,0.2c0,0,0,0.1,0,0.1v0.8h-0.2V11.7z"/>
			<path class="st0" d="M31.1,12.5c0.1,0,0.2,0.1,0.3,0.1c0.2,0,0.3-0.1,0.3-0.2c0-0.1-0.1-0.2-0.2-0.2c-0.2-0.1-0.4-0.2-0.4-0.4
				c0-0.2,0.2-0.4,0.5-0.4c0.1,0,0.3,0,0.3,0.1l-0.1,0.2c-0.1,0-0.1-0.1-0.3-0.1c-0.1,0-0.2,0.1-0.2,0.2c0,0.1,0.1,0.2,0.3,0.2
				c0.2,0.1,0.4,0.2,0.4,0.4c0,0.2-0.2,0.4-0.5,0.4c-0.1,0-0.3,0-0.4-0.1L31.1,12.5z"/>
			<path class="st0" d="M33.1,12.1c0,0.3,0.2,0.5,0.5,0.5c0.2,0,0.3,0,0.4-0.1l0,0.2c-0.1,0-0.2,0.1-0.4,0.1c-0.4,0-0.7-0.3-0.7-0.7
				c0-0.4,0.2-0.7,0.6-0.7c0.4,0,0.6,0.4,0.6,0.6c0,0,0,0.1,0,0.1H33.1z M33.8,11.9c0-0.2-0.1-0.4-0.3-0.4c-0.2,0-0.4,0.2-0.4,0.4
				H33.8z"/>
			<path class="st0" d="M34.7,11v0.4H35v0.2h-0.3v0.7c0,0.2,0,0.3,0.2,0.3c0.1,0,0.1,0,0.1,0l0,0.2c0,0-0.1,0-0.2,0
				c-0.1,0-0.2,0-0.3-0.1c-0.1-0.1-0.1-0.2-0.1-0.3v-0.7h-0.2v-0.2h0.2v-0.3L34.7,11z"/>
			<path class="st0" d="M37.1,10.8v1.6c0,0.1,0,0.3,0,0.3h-0.2l0-0.2h0c-0.1,0.1-0.2,0.3-0.5,0.3c-0.3,0-0.6-0.3-0.6-0.7
				c0-0.4,0.3-0.7,0.6-0.7c0.2,0,0.3,0.1,0.4,0.2h0v-0.8H37.1z M36.9,11.9c0,0,0-0.1,0-0.1c0-0.2-0.2-0.3-0.4-0.3
				c-0.3,0-0.4,0.2-0.4,0.5c0,0.3,0.1,0.5,0.4,0.5c0.2,0,0.3-0.1,0.4-0.3c0,0,0-0.1,0-0.1V11.9z"/>
			<path class="st0" d="M37.7,12.1c0,0.3,0.2,0.5,0.5,0.5c0.2,0,0.3,0,0.4-0.1l0,0.2c-0.1,0-0.2,0.1-0.4,0.1c-0.4,0-0.7-0.3-0.7-0.7
				c0-0.4,0.2-0.7,0.6-0.7c0.4,0,0.6,0.4,0.6,0.6c0,0,0,0.1,0,0.1H37.7z M38.4,11.9c0-0.2-0.1-0.4-0.3-0.4c-0.2,0-0.4,0.2-0.4,0.4
				H38.4z"/>
			<path class="st0" d="M39,12.5c0.1,0,0.2,0.1,0.3,0.1c0.2,0,0.3-0.1,0.3-0.2c0-0.1-0.1-0.2-0.2-0.2C39.1,12,39,11.9,39,11.7
				c0-0.2,0.2-0.4,0.5-0.4c0.1,0,0.3,0,0.3,0.1l-0.1,0.2c-0.1,0-0.1-0.1-0.3-0.1c-0.1,0-0.2,0.1-0.2,0.2c0,0.1,0.1,0.2,0.3,0.2
				c0.2,0.1,0.4,0.2,0.4,0.4c0,0.2-0.2,0.4-0.5,0.4c-0.1,0-0.3,0-0.4-0.1L39,12.5z"/>
			<path class="st0" d="M40.8,10.8h0.2v2h-0.2V10.8z"/>
			<path class="st0" d="M41.8,11c0,0.1-0.1,0.1-0.2,0.1c-0.1,0-0.1-0.1-0.1-0.1c0-0.1,0.1-0.2,0.2-0.2C41.7,10.8,41.8,10.9,41.8,11z
				 M41.5,12.7v-1.3h0.2v1.3H41.5z"/>
			<path class="st0" d="M42.4,12.1c0,0.3,0.2,0.5,0.5,0.5c0.2,0,0.3,0,0.4-0.1l0,0.2c-0.1,0-0.2,0.1-0.4,0.1c-0.4,0-0.7-0.3-0.7-0.7
				c0-0.4,0.2-0.7,0.6-0.7c0.4,0,0.6,0.4,0.6,0.6c0,0,0,0.1,0,0.1H42.4z M43.1,11.9c0-0.2-0.1-0.4-0.3-0.4c-0.2,0-0.4,0.2-0.4,0.4
				H43.1z"/>
			<path class="st0" d="M43.7,11.7c0-0.1,0-0.3,0-0.4h0.2l0,0.2h0c0.1-0.1,0.2-0.3,0.4-0.3c0.2,0,0.5,0.1,0.5,0.6v0.8h-0.2v-0.8
				c0-0.2-0.1-0.4-0.3-0.4c-0.2,0-0.3,0.1-0.3,0.2c0,0,0,0.1,0,0.1v0.8h-0.2V11.7z"/>
			<path class="st0" d="M45.2,12.5c0.1,0,0.2,0.1,0.3,0.1c0.2,0,0.3-0.1,0.3-0.2c0-0.1-0.1-0.2-0.2-0.2c-0.2-0.1-0.4-0.2-0.4-0.4
				c0-0.2,0.2-0.4,0.5-0.4c0.1,0,0.3,0,0.3,0.1l-0.1,0.2c-0.1,0-0.1-0.1-0.3-0.1c-0.1,0-0.2,0.1-0.2,0.2c0,0.1,0.1,0.2,0.3,0.2
				c0.2,0.1,0.4,0.2,0.4,0.4c0,0.2-0.2,0.4-0.5,0.4c-0.1,0-0.3,0-0.4-0.1L45.2,12.5z"/>
		</g>
	</g>
</g>
</svg>
